<?xml version="1.0" encoding="UTF-8"?>
<svg id="Calque_1" xmlns="http://www.w3.org/2000/svg" version="1.1" viewBox="0 0 800 800">
  <!-- Generator: Adobe Illustrator 29.8.1, SVG Export Plug-In . SVG Version: 2.1.1 Build 2)  -->
  <path d="M62.9,269.5C270.9,188.2,482.2,115.5,688.5,30.5l2.2-20.1,5.1-4.6,53.1,18.3c7,15.3,21.3,34.1,20.7,51.3-.2,4.7-5.5,6.5-5.2,9.3.7,5.7,8.3,13.1,10.9,19.6,6.5,15.8,15.5,44.7,3.4,59.2-15,18-23.7,6.5-35.2,13-5.7,3.2-9,11.4-18.5,16.3-42.2,21.8-95.3,31.9-138,56.2-36.8,20.9-16.5,65-1.7,93.9,5.6,11,19.5,22.9,22.6,29s.1,7.1-2,9.4c-2.3,2.4-35.5,18.1-42.3,21.1-26.9,11.9-111.7,49.1-135.6,50.6-18.8,1.1-35.5-10-51,10.6-8.5,11.3-9.8,47.1-4,59.2,2.3,4.9,9.9,8.9,10.4,14.3s-9,12-11.3,17.9c-4.5,11.4-4.6,36.8,0,48.3,2.4,6,9,11.5,9.6,17.1s-8.2,13.3-10.4,19.9c-7.9,23.2,2.6,46.4,12.9,66.6l-15.6,13c1.8,7,9.4,20.6,4.1,27.3-12.9,16.3-135.8,39.2-161.9,50.3-10.2-7.2-8.9-20-8.5-30.6-8.2-4.1-15,2.6-25.1,1.6-7.5-.7-41.1-12-44.6-18.9-12.5-24.6-4.4-95.7-.8-124.7,7.2-57.7,38.4-166.6-24.1-203.3-26.4-15.5-42-2.9-68.2-6.3-6.8-10.3-.5-20.4-3.3-31.9-5.6-22.6-28.4-59.5-30.2-79.8s22.6-16.3,29.9-24.4-2.7-29.1,17-23.5l10.4,14ZM478,392.1c4,3.7,6.4,6,2.7,11.2-3.5,2.5-19.3.7-24.1-.4-14.4-3.2-34.8-18.8-44-20.7-6.8-1.4-18.2,4.3-23.4,2.8-5.4-1.6-6.3-14-13.1-10.4-4.8,34.4,28,61,61.2,51.7,22.3-6.3,82.3-28.5,101.4-39.4,42-24.1,9.3-109.8-33.9-102.5-10.9,1.8-76.7,34.4-78.5,41.6,1.1,9.8,9.3,27,16.3,33.6,6.3,5.9,51.2,17,46.1,28.4l-10.7,4.2Z"/>
</svg>