<?xml version="1.0" encoding="UTF-8"?>
<svg id="Calque_1" xmlns="http://www.w3.org/2000/svg" version="1.1" viewBox="0 0 857.9 349.9">
  <!-- Generator: Adobe Illustrator 29.8.1, SVG Export Plug-In . SVG Version: 2.1.1 Build 2)  -->
  <g>
    <path d="M356,1.5c-69-.8-114.3,20-140.1,37.7-14.8,10.1-25.2,20.4-31.7,28.1-6.6-7.7-16.9-17.9-31.7-28.1C126.7,21.5,81.4.7,12.4,1.5,6.6,1.6,1.9,6.3,1.9,12.1v251.2c0,3,1.3,5.9,3.6,7.9,2.3,2,5.3,3,8.3,2.6.2,0,18.4-2,47.5,5.9,26.9,7.3,68.9,24.8,115.9,66.6,2,1.8,4.5,2.7,7,2.7s5-.9,7-2.7c47-41.8,89-59.3,115.9-66.6,29.1-7.9,47.3-6,47.4-5.9,3,.4,6-.6,8.3-2.6,2.3-2,3.6-4.9,3.6-7.9V12.1c0-5.8-4.7-10.5-10.5-10.6ZM253.9,277.7c-18.4,9.2-38.5,21.6-59.7,38.5v-2.8c1.7-3,3.8-6.6,6.7-11,12.5-18.5,36.2-37.6,55.5-49.2-2.1,7.3-2,16.3-2.5,24.5ZM142.9,58.4c6.5,4.6,12,9.3,16.4,13.5-52.8,8-77.4,42.6-126.9,72.9-3.1,1.9-6.1,3.6-9.2,5.2v-41.7c30.2-13.6,58.2-32.9,90.5-42.9,9.2-2.9,19.1-5.2,29.3-7ZM275.1,165.2h-34.5c-3.9-23.9-22.7-42.9-46.5-47.1v-29.1c.7-1.1,1.9-2.8,3.7-5,41,6.1,73.1,39.5,77.3,81.2ZM184.2,211.7c-20.6,0-37.3-16.7-37.3-37.3s16.7-37.3,37.3-37.3,37.3,16.7,37.3,37.3-16.7,37.3-37.3,37.3ZM127.7,165.2h-34.5c4.2-41.6,36.3-75,77.3-81.2,1.7,2.2,2.9,3.9,3.7,5v29.1c-23.8,4.2-42.6,23.2-46.5,47.1ZM128,185.2c4.4,23.2,22.9,41.4,46.2,45.6v34.5c-42.2-4.6-75.8-38-80.8-80.1h34.6ZM194.2,265.3v-34.5c23.3-4.1,41.8-22.4,46.2-45.6h34.6c-4.9,42.1-38.5,75.5-80.8,80.1ZM209,72c4.7-4.5,10.5-9.4,17.6-14.4,42.4,7.2,81,27.2,101.5,65.2,2.6,4.8,10.3,19.8,17.2,29v24.1c-47.2-38.8-69.7-93.4-136.3-104ZM345.2,101.8c-18-29.9-52.7-49.9-90.5-60.1,22-9.8,51.7-18.1,90.5-18.9v79ZM113,41.5c-4,1-7.8,2.1-11.4,3.3-26.8,8.8-52.2,26.2-78.4,39.6V22.8c38.4.9,67.9,9,89.8,18.7ZM23.1,252.4v-55c29.6,10.4,52.5,38,77.4,56.4,22.6,16.7,46.4,31.3,73.7,30v32.4c-69.3-55.2-127-63.2-151.1-63.8ZM267,271.5c1.1-11.3,3.6-22.9,10.2-31.2,16.6-21,42.2-32.3,68.1-31.9v44c-14.9.4-42.8,3.6-78.3,19.1Z"/>
    <circle cx="198.1" cy="162.6" r="11.8"/>
  </g>
  <g>
    <path d="M485.2,34.3h-29.5v234.2h-39.5V34.3h-29.9V1.9h98.9v32.4Z"/>
    <path d="M614.7,268.5h-39.8V122.7h-34.3v145.8h-39.5V1.9h39.5v88.1h34.3V1.9h39.8v266.6Z"/>
    <path d="M751.4,218.5c0,49.6-10,56.4-56.7,56.4s-56.3-6.8-56.3-56.4V57.5c0-49.3,9.6-56,56.3-56s56.7,6.7,56.7,56v161ZM711.5,57.5c0-17.9-2.4-21.3-16.5-21.3s-17.2,3.7-17.2,21.3v161c0,18.6,2.4,21.9,16.5,21.9s17.2-4,17.2-21.9V57.5Z"/>
    <path d="M857.5,34.3h-29.5v234.2h-39.5V34.3h-29.9V1.9h98.9v32.4Z"/>
  </g>
</svg>