<?xml version="1.0" encoding="UTF-8"?>
<svg id="Calque_1" xmlns="http://www.w3.org/2000/svg" version="1.1" viewBox="0 0 800 800">
  <!-- Generator: Adobe Illustrator 30.3.0, SVG Export Plug-In . SVG Version: 2.1.3 Build 182)  -->
  <path d="M758.59,256.93h-284.7c-16.79,0-32.21,9.26-41.88,24.19-7,10.82-18.58,17.88-31.67,17.88s-24.67-7.07-31.67-17.88c-9.66-14.93-25.09-24.19-41.88-24.19H42.09c-20.85,0-37.76,20.03-37.76,44.74v277.42c0,24.71,16.91,44.74,37.76,44.74h284.7c16.79,0,32.21-9.26,41.88-24.19,7-10.82,18.58-17.88,31.67-17.88s24.67,7.07,31.67,17.88c9.66,14.93,25.09,24.19,41.88,24.19h284.7c20.85,0,37.76-20.03,37.76-44.74v-277.42c0-24.71-16.91-44.74-37.76-44.74h0Z"/>
  <path d="M337.22,192.87H33.97c-7.36,0-13.12-7.1-12.26-15.19C31.73,84.04,131.72,21.94,185.61,21.94c50.67,0,153.52,62.07,163.87,155.69.9,8.1-4.88,15.23-12.25,15.23h0Z"/>
  <rect x="3.99" y="687.9" width="363.2" height="89.11" rx="23.87" ry="23.87"/>
  <path d="M767.02,192.87h-303.25c-7.36,0-13.12-7.1-12.26-15.19,10.01-93.64,110.01-155.74,163.89-155.74,50.67,0,153.52,62.07,163.87,155.69.9,8.1-4.88,15.23-12.25,15.23h0Z"/>
  <rect x="433.8" y="687.9" width="363.2" height="89.11" rx="23.87" ry="23.87"/>
</svg>