<?xml version="1.0" encoding="UTF-8"?>
<svg id="Calque_1" xmlns="http://www.w3.org/2000/svg" version="1.1" viewBox="0 0 800 800">
  <!-- Generator: Adobe Illustrator 30.3.0, SVG Export Plug-In . SVG Version: 2.1.3 Build 182)  -->
  <path d="M518,428.19c1.65-7.72,1.21-18.2-2.71-25.64h.01l-13.52-25.72c-2.18-4.15-3.5-8.7-3.88-13.38l-2.34-29c-1.39-17.23-15.23-30.81-32.48-31.9l-32.69-2.05c-1.63-.1-4.93-.72-6.52-1.05-1.57-.42-4.8-1.35-6.3-1.99l-30.14-12.82c-15.9-6.77-34.36-.83-43.33,13.94l-15.1,24.87c-2.43,4.01-5.65,7.48-9.47,10.22l-23.62,16.93c-6.84,4.9-11.93,14.06-13.92,21.7-1.65,7.72-1.21,18.2,2.71,25.64l13.52,25.72c2.18,4.15,3.5,8.7,3.88,13.38l2.34,29c1.39,17.23,15.23,30.81,32.47,31.9l32.69,2.05c1.63.1,4.93.72,6.52,1.05,1.57.42,4.8,1.35,6.3,1.99l30.14,12.82c15.9,6.77,34.36.83,43.33-13.94l15.1-24.87c2.43-4.01,5.65-7.48,9.47-10.22l23.62-16.93c6.84-4.9,11.93-14.06,13.92-21.7Z"/>
  <path d="M400,1.97C180.04,1.97,1.73,180.28,1.73,400.24s178.31,398.27,398.27,398.27,398.27-178.31,398.27-398.27S619.96,1.97,400,1.97ZM686.96,568.73c-179.84,46.47-281.34,11.4-332.05-21.26,52.2,55.48,131.38,86.02,190.46,102.69,10.13,2.85,12.97,15.92,4.85,22.62-22.84,18.83-47.21,50.45-78.72,69.61-23.77,14.46-54.44,10.45-73.94-9.4-130.17-132.51-150.54-237.94-147.62-298.19-21.96,72.95-8.81,156.79,6.29,216.29,2.59,10.21-7.31,19.21-17.17,15.52-27.73-10.37-67.29-15.66-99.64-33.37-24.41-13.35-36.27-41.92-28.83-68.73,49.68-178.98,130.8-249.35,184.44-276.94-74.15,17.45-140.19,70.76-184.16,113.59-7.54,7.34-20.28,3.27-22.02-7.11-4.88-29.2-20.08-66.11-20.92-102.98-.64-27.81,18.17-52.37,45.11-59.33,179.84-46.47,281.34-11.4,332.05,21.26-52.2-55.48-131.38-86.02-190.46-102.69-10.13-2.85-12.97-15.92-4.85-22.62,22.84-18.83,47.21-50.45,78.72-69.61,23.77-14.46,54.44-10.45,73.94,9.4,130.17,132.51,150.54,237.94,147.62,298.19,21.96-72.95,8.81-156.79-6.29-216.29-2.59-10.21,7.31-19.21,17.17-15.52,27.73,10.37,67.29,15.66,99.64,33.37,24.41,13.35,36.27,41.92,28.83,68.73-49.68,178.98-130.8,249.35-184.44,276.94,74.15-17.45,140.19-70.76,184.16-113.59,7.54-7.34,20.28-3.27,22.02,7.11,4.88,29.2,20.08,66.11,20.92,102.98h0c.64,27.81-18.17,52.37-45.11,59.33Z"/>
</svg>