<?xml version="1.0" encoding="UTF-8"?>
<svg id="Calque_1" xmlns="http://www.w3.org/2000/svg" version="1.1" viewBox="0 0 1024 1024">
  <!-- Generator: Adobe Illustrator 30.3.0, SVG Export Plug-In . SVG Version: 2.1.3 Build 182)  -->
  <defs>
    <style>
      .st0 {
        fill: #505136;
      }

      .st1 {
        fill: #1d1d1b;
      }

      .st2 {
        fill: #fff;
      }

      .st3 {
        opacity: .3;
      }
    </style>
  </defs>
  <rect class="st0" x="1092.7" y="-.01" width="1024.02" height="1024.02"/>
  <g>
    <circle class="st2" cx="-826.8" cy="476.54" r="19.95"/>
    <path class="st2" d="M-586.93,200.06c-178.09,0-264.42,111.78-264.42,111.78,0,0-86.32-111.78-264.42-111.78h-28.76c-10.39,0-18.82,8.43-18.82,18.82v427.64c0,10.41,8.45,18.85,18.86,18.82,27.47-.07,82.31,4.28,147,33.64,63.9,29,111.4,70.14,133.09,91.02,7.29,7.02,18.81,7.02,26.1,0,21.69-20.88,69.19-62.02,133.09-91.02,64.69-29.36,119.53-33.71,147-33.64,10.41.03,18.86-8.41,18.86-18.82V218.88c0-10.39-8.43-18.82-18.82-18.82h-28.76ZM-826.46,340.87c69.52,11.16,123.66,68.28,130.26,139.22h-58.2c-6.26-41.83-38.96-75.03-80.55-82.03v-49.1s6.38-6.07,8.49-8.09ZM-914.72,494.73c0-5.04.59-9.94,1.71-14.64,5.35-22.65,22.86-40.6,45.26-46.58,5.23-1.4,10.73-2.15,16.4-2.15s11.17.75,16.4,2.15c22.4,5.98,39.91,23.93,45.26,46.58,1.12,4.7,1.71,9.6,1.71,14.64,0,6.32-.93,12.41-2.65,18.16-6.26,20.98-23.09,37.39-44.32,43.06-5.23,1.4-10.73,2.15-16.4,2.15s-11.17-.75-16.4-2.15c-21.23-5.66-38.06-22.08-44.32-43.06-1.72-5.75-2.65-11.84-2.65-18.16ZM-834.95,591.39c40.42-6.81,72.43-38.34,79.96-78.5h58.43c-8.38,72.14-66.01,129.25-138.38,136.82v-58.32ZM-867.75,398.06c-41.59,7-74.29,40.2-80.55,82.03h-58.2c6.61-70.92,60.72-128.04,130.22-139.22,3,2.85,8.54,8,8.54,8v49.18ZM-1125.39,236.19c62.55,0,112.41,13.45,150.95,31.16-13.8,2.7-38.51,11.16-82.02,34.27-33.2,18.41-55.29,30.36-68.93,37.64v-103.07ZM-1125.39,382.5c18.14-9.9,46.66-25.82,86.87-46.03,3.6-1.81,21.82-10.88,25.55-12.4,47.85-19.54,78.76-25.33,89.73-26.91,10.72,7.76,19.79,15.45,27.29,22.49-44.51,6.77-80.78,25.22-123.25,58.3-62.83,48.95-97.2,69.81-106.19,75.02v-70.47ZM-867.75,737.39c-134.96-110.2-257.64-109.96-257.64-109.96v-92.75c29.85,5.99,80.63,55.2,142.09,104.56,55.64,44.68,115.41,44.68,115.41,44.68l.14,18.56v34.91ZM-867.75,649.71c-72.38-7.57-130.01-64.69-138.38-136.82h58.43c7.52,40.16,39.54,71.69,79.96,78.5v58.32ZM-834.95,737.39v-.43c.06.1.11.19.17.3-.06.05-.11.09-.17.14ZM-733.48,671.58c-31.57,15.65-65.94,36.84-101.16,65.55,11-36.04,64.21-80.93,104.9-106.42-3.4,18.71-3.78,33.96-3.74,40.88ZM-577.31,627.42s-55.33-.1-132.53,33.2c2.96-19.41,12.57-51.43,43.26-75.92,37.39-29.84,76.98-31.73,89.28-31.52v74.24ZM-577.31,494.16c-46.05-34.22-99.45-108.17-140.58-136.25-25.52-17.44-52.49-31.82-88.96-38.14,7.89-7.43,17.54-15.57,29.03-23.77,14.67,2.51,51.31,11.47,90.54,36.61,34.65,22.2,67.93,51.8,89.76,89.43,8.27,14.26,14.88,26.16,20.21,33.55v38.57ZM-577.31,368.35c-9.43-15.05-32.11-45.53-72.06-67.64-30.15-16.67-62.64-27.45-80.43-32.65,38.76-18.06,89.11-31.86,152.49-31.86v132.16Z"/>
  </g>
  <g>
    <circle class="st0" cx="552.28" cy="480.68" r="32.23"/>
    <path class="st0" d="M939.76,34.06c-287.69,0-427.14,180.57-427.14,180.57,0,0-139.45-180.57-427.14-180.57h-46.46c-16.79,0-30.4,13.61-30.4,30.4v690.82c0,16.82,13.64,30.45,30.46,30.4,44.37-.12,132.97,6.92,237.46,54.34,103.23,46.84,179.96,113.3,215,147.03,11.77,11.33,30.38,11.33,42.16,0,35.04-33.73,111.77-100.19,215-147.03,104.49-47.42,193.09-54.46,237.46-54.34,16.82.05,30.46-13.58,30.46-30.4V64.46c0-16.79-13.61-30.4-30.4-30.4h-46.46ZM552.83,261.51c112.3,18.03,199.75,110.31,210.42,224.9h-94.02c-10.11-67.58-62.94-121.21-130.13-132.52v-79.32s10.3-9.81,13.72-13.06ZM410.26,510.06c0-8.14.95-16.05,2.76-23.64,8.64-36.59,36.93-65.59,73.12-75.25,8.45-2.26,17.33-3.47,26.49-3.47s18.04,1.21,26.49,3.47c36.19,9.66,64.47,38.66,73.12,75.25,1.81,7.59,2.76,15.51,2.76,23.64,0,10.2-1.49,20.04-4.28,29.34-10.11,33.89-37.31,60.4-71.6,69.55-8.45,2.26-17.33,3.47-26.49,3.47s-18.04-1.21-26.49-3.47c-34.29-9.15-61.48-35.67-71.6-69.55-2.78-9.29-4.28-19.13-4.28-29.34ZM539.11,666.21c65.29-11,117.01-61.94,129.16-126.81h94.38c-13.53,116.53-106.63,208.79-223.55,221.02v-94.21ZM486.13,353.89c-67.19,11.31-120.01,64.94-130.13,132.52h-94.02c10.68-114.57,98.09-206.84,210.35-224.89,4.84,4.61,13.79,12.93,13.79,12.93v79.44ZM69.94,92.42c101.05,0,181.59,21.72,243.85,50.33-22.29,4.37-62.21,18.03-132.49,55.36-53.63,29.74-89.31,49.04-111.36,60.81V92.42ZM69.94,328.77c29.3-15.99,75.38-41.7,140.33-74.36,5.82-2.92,35.25-17.57,41.28-20.03,77.3-31.56,127.23-40.92,144.94-43.47,17.31,12.54,31.96,24.96,44.08,36.33-71.91,10.93-130.49,40.74-199.1,94.17-101.49,79.08-157.02,112.77-171.54,121.18v-113.84ZM486.13,902.05c-218.01-178.01-416.19-177.64-416.19-177.64v-149.83c48.22,9.68,130.25,89.18,229.54,168.91,89.88,72.18,186.44,72.18,186.44,72.18l.22,29.98v56.39ZM486.13,760.42c-116.92-12.23-210.01-104.49-223.55-221.02h94.38c12.15,64.87,63.87,115.82,129.16,126.81v94.21ZM539.11,902.05v-.7c.09.16.18.31.27.48-.09.08-.18.14-.27.22ZM703.03,795.75c-51.01,25.28-106.52,59.51-163.42,105.88,17.77-58.22,103.73-130.74,169.46-171.92-5.5,30.22-6.11,54.85-6.04,66.03ZM955.31,724.41s-89.38-.17-214.1,53.63c4.78-31.35,20.3-83.07,69.88-122.64,60.4-48.2,124.36-51.25,144.22-50.91v119.92ZM955.31,509.13c-74.39-55.28-160.66-174.74-227.09-220.1-41.23-28.17-84.79-51.41-143.71-61.61,12.75-12,28.34-25.15,46.9-38.4,23.7,4.06,82.88,18.53,146.25,59.14,55.97,35.86,109.74,83.68,145,144.47,13.37,23.04,24.03,42.26,32.65,54.19v62.31ZM955.31,305.9c-15.23-24.31-51.86-73.54-116.4-109.26-48.7-26.93-101.19-44.34-129.93-52.75,62.61-29.18,143.94-51.47,246.33-51.47v213.49Z"/>
  </g>
  <g>
    <g class="st3">
      <g>
        <circle class="st1" cx="-514.85" cy="513.38" r="19.92"/>
        <path class="st1" d="M-275.36,237.34c-177.81,0-264,111.6-264,111.6,0,0-86.19-111.6-264-111.6h-28.71c-10.38,0-18.79,8.41-18.79,18.79v426.97c0,10.39,8.43,18.82,18.83,18.79,27.42-.07,82.18,4.28,146.76,33.59,63.8,28.95,111.22,78.86,132.88,99.71,7.28,7.01,18.78,7.01,26.05,0,21.66-20.85,69.08-70.76,132.88-99.71,64.58-29.31,119.34-33.66,146.76-33.59,10.39.03,18.83-8.39,18.83-18.79v-426.97c0-10.38-8.41-18.79-18.79-18.79h-28.71ZM-514.5,377.92c69.41,11.14,123.46,68.18,130.05,139h-58.11c-6.25-41.77-38.9-74.91-80.43-81.9v-49.02s6.37-6.06,8.48-8.07ZM-602.62,531.54c0-5.03.59-9.92,1.7-14.61,5.34-22.61,22.82-40.54,45.19-46.51,5.22-1.4,10.71-2.14,16.37-2.14s11.15.75,16.37,2.14c22.37,5.97,39.85,23.89,45.19,46.51,1.12,4.69,1.7,9.58,1.7,14.61,0,6.31-.92,12.39-2.64,18.13-6.25,20.94-23.06,37.33-44.25,42.99-5.22,1.4-10.71,2.14-16.37,2.14s-11.15-.75-16.37-2.14c-21.19-5.66-38-22.04-44.25-42.99-1.72-5.74-2.64-11.83-2.64-18.13ZM-522.98,628.05c40.35-6.8,72.32-38.28,79.83-78.38h58.33c-8.36,72.02-65.9,129.05-138.16,136.61v-58.23ZM-555.73,435.02c-41.53,6.99-74.18,40.14-80.43,81.9h-58.11c6.6-70.81,60.62-127.84,130.01-138.99,2.99,2.85,8.52,7.99,8.52,7.99v49.1ZM-812.96,273.41c62.45,0,112.23,13.42,150.71,31.11-13.78,2.7-38.45,11.14-81.89,34.22-33.15,18.38-55.2,30.31-68.82,37.58v-102.9ZM-812.96,419.49c18.11-9.88,46.59-25.78,86.73-45.96,3.6-1.81,21.79-10.86,25.51-12.38,47.78-19.51,78.63-25.29,89.58-26.86,10.7,7.75,19.75,15.42,27.24,22.45-44.44,6.76-80.65,25.18-123.05,58.2-62.73,48.88-97.05,69.7-106.02,74.9v-70.36ZM-555.73,773.81c-134.74-110.02-257.23-109.79-257.23-109.79v-92.6c29.81,5.99,80.5,55.12,141.87,104.4,55.55,44.61,115.23,44.61,115.23,44.61l.14,18.53v34.85ZM-555.73,686.28c-72.26-7.56-129.8-64.58-138.16-136.61h58.33c7.51,40.1,39.48,71.58,79.83,78.38v58.23ZM-522.98,773.81v-.43c.06.1.11.19.17.3-.06.05-.11.09-.17.14ZM-421.67,708.11c-31.52,15.63-65.84,36.78-101,65.44,10.98-35.98,64.11-80.8,104.74-106.25-3.4,18.68-3.78,33.9-3.74,40.81ZM-265.75,664.02s-55.24-.1-132.32,33.15c2.96-19.38,12.55-51.34,43.19-75.8,37.33-29.79,76.86-31.68,89.13-31.47v74.12ZM-265.75,530.97c-45.98-34.17-99.3-108-140.36-136.04-25.48-17.41-52.4-31.77-88.82-38.08,7.88-7.42,17.51-15.55,28.99-23.73,14.65,2.51,51.23,11.45,90.39,36.55,34.59,22.17,67.82,51.72,89.62,89.29,8.26,14.24,14.85,26.12,20.18,33.49v38.51ZM-265.75,405.36c-9.42-15.02-32.05-45.45-71.94-67.53-30.1-16.65-62.54-27.4-80.31-32.6,38.7-18.04,88.97-31.81,152.25-31.81v131.95Z"/>
      </g>
    </g>
    <g>
      <circle class="st2" cx="-514.85" cy="493.6" r="19.92"/>
      <path class="st2" d="M-275.36,217.56c-177.81,0-264,111.6-264,111.6,0,0-86.19-111.6-264-111.6h-28.71c-10.38,0-18.79,8.41-18.79,18.79v426.97c0,10.39,8.43,18.82,18.83,18.79,27.42-.07,82.18,4.28,146.76,33.59,63.8,28.95,111.22,70.02,132.88,90.87,7.28,7.01,18.78,7.01,26.05,0,21.66-20.85,69.08-61.92,132.88-90.87,64.58-29.31,119.34-33.66,146.76-33.59,10.39.03,18.83-8.39,18.83-18.79V236.35c0-10.38-8.41-18.79-18.79-18.79h-28.71ZM-514.5,358.14c69.41,11.14,123.46,68.18,130.05,139h-58.11c-6.25-41.77-38.9-74.91-80.43-81.9v-49.02s6.37-6.06,8.48-8.07ZM-602.62,511.75c0-5.03.59-9.92,1.7-14.61,5.34-22.61,22.82-40.54,45.19-46.51,5.22-1.4,10.71-2.14,16.37-2.14s11.15.75,16.37,2.14c22.37,5.97,39.85,23.89,45.19,46.51,1.12,4.69,1.7,9.58,1.7,14.61,0,6.31-.92,12.39-2.64,18.13-6.25,20.94-23.06,37.33-44.25,42.99-5.22,1.4-10.71,2.14-16.37,2.14s-11.15-.75-16.37-2.14c-21.19-5.66-38-22.04-44.25-42.99-1.72-5.74-2.64-11.83-2.64-18.13ZM-522.98,608.26c40.35-6.8,72.32-38.28,79.83-78.38h58.33c-8.36,72.02-65.9,129.05-138.16,136.61v-58.23ZM-555.73,415.24c-41.53,6.99-74.18,40.14-80.43,81.9h-58.11c6.6-70.81,60.62-127.84,130.01-138.99,2.99,2.85,8.52,7.99,8.52,7.99v49.1ZM-812.96,253.63c62.45,0,112.23,13.42,150.71,31.11-13.78,2.7-38.45,11.14-81.89,34.22-33.15,18.38-55.2,30.31-68.82,37.58v-102.9ZM-812.96,399.71c18.11-9.88,46.59-25.78,86.73-45.96,3.6-1.81,21.79-10.86,25.51-12.38,47.78-19.51,78.63-25.29,89.58-26.86,10.7,7.75,19.75,15.42,27.24,22.45-44.44,6.76-80.65,25.18-123.05,58.2-62.73,48.88-97.05,69.7-106.02,74.9v-70.36ZM-555.73,754.03c-134.74-110.02-257.23-109.79-257.23-109.79v-92.6c29.81,5.99,80.5,55.12,141.87,104.4,55.55,44.61,115.23,44.61,115.23,44.61l.14,18.53v34.85ZM-555.73,666.49c-72.26-7.56-129.8-64.58-138.16-136.61h58.33c7.51,40.1,39.48,71.58,79.83,78.38v58.23ZM-522.98,754.03v-.43c.06.1.11.19.17.3-.06.05-.11.09-.17.14ZM-421.67,688.33c-31.52,15.63-65.84,36.78-101,65.44,10.98-35.98,64.11-80.8,104.74-106.25-3.4,18.68-3.78,33.9-3.74,40.81ZM-265.75,644.24s-55.24-.1-132.32,33.15c2.96-19.38,12.55-51.34,43.19-75.8,37.33-29.79,76.86-31.68,89.13-31.47v74.12ZM-265.75,511.18c-45.98-34.17-99.3-108-140.36-136.04-25.48-17.41-52.4-31.77-88.82-38.08,7.88-7.42,17.51-15.55,28.99-23.73,14.65,2.51,51.23,11.45,90.39,36.55,34.59,22.17,67.82,51.72,89.62,89.29,8.26,14.24,14.85,26.12,20.18,33.49v38.51ZM-265.75,385.58c-9.42-15.02-32.05-45.45-71.94-67.53-30.1-16.65-62.54-27.4-80.31-32.6,38.7-18.04,88.97-31.81,152.25-31.81v131.95Z"/>
    </g>
  </g>
</svg>